<svg xmlns="http://www.w3.org/2000/svg" xmlns:xlink="http://www.w3.org/1999/xlink"
    xmlns:fi="http://pattern.flaticon.com/" x="0" y="0" width="2048" height="1024"
    viewBox="0 0 2048 1024">
    <rect x="0px" y="0px" width="100%" height="100%" opacity="0" fill="#fffef4" />
    <defs>
        <g transform="matrix(0.1171875 0 0 0.1171875 105 77.99999919891354)" id="L1_0">
            <path
                d="M404.267,315.41c-10.048-20.949-45.995-50.027-80.725-78.123c-19.371-15.659-37.675-30.464-49.344-42.133    c-2.923-2.944-7.296-3.883-11.157-2.496c-7.189,2.603-11.627,4.608-15.125,6.165c-5.333,2.389-7.125,3.2-14.315,3.925    c-3.179,0.32-6.037,2.027-7.808,4.672c-15.083,22.549-30.699,20.629-41.131,17.131c-3.328-1.109-3.925-2.539-4.245-3.904    c-2.24-9.365,9.003-31.168,23.573-45.739c34.667-34.688,52.544-43.371,90.304-26.496c42.837,19.157,85.76,34.155,86.187,34.304    c5.611,1.941,11.648-1.003,13.589-6.571c1.92-5.568-1.003-11.648-6.571-13.589c-0.427-0.149-42.496-14.848-84.48-33.643    c-48.917-21.867-75.755-7.467-114.091,30.891c-14.592,14.592-34.411,44.117-29.291,65.771c2.197,9.216,8.683,16.043,18.325,19.221    c24.171,7.979,46.229,0.341,62.656-21.461c6.784-1.045,10.475-2.581,16.021-5.077c2.005-0.896,4.352-1.941,7.467-3.2    c12.203,11.456,28.672,24.789,46.016,38.805c31.36,25.365,66.923,54.123,74.923,70.763c3.947,8.213-0.299,13.568-3.179,16.021    c-4.224,3.627-10.005,4.779-13.141,2.581c-3.456-2.368-7.957-2.517-11.52-0.384c-3.584,2.133-5.589,6.165-5.141,10.304    c0.725,6.784-5.483,10.667-8.171,12.011c-6.827,3.456-13.952,2.859-16.619,0.384c-2.987-2.773-7.275-3.584-11.072-2.176    c-3.797,1.429-6.443,4.928-6.827,8.981c-0.64,6.997-5.824,13.717-12.587,16.341c-3.264,1.237-8,1.984-12.245-1.899    c-2.645-2.389-6.315-3.307-9.749-2.475c-3.477,0.853-6.272,3.371-7.488,6.72c-0.405,1.067-1.323,3.627-11.307,3.627    c-7.104,0-19.883-4.8-26.133-8.939c-7.488-4.928-54.443-39.957-94.997-73.92c-5.696-4.8-15.552-15.083-24.256-24.171    c-7.723-8.064-14.784-15.381-18.411-18.453c-4.544-3.84-11.264-3.264-15.04,1.259c-3.797,4.501-3.243,11.243,1.259,15.04    c3.307,2.795,9.707,9.557,16.768,16.917c9.515,9.941,19.349,20.224,25.963,25.771c39.723,33.259,87.467,69.163,96.981,75.413    c7.851,5.163,24.768,12.416,37.867,12.416c10.517,0,18.603-2.411,24.213-7.125c7.509,2.923,16.043,2.944,24.256-0.256    c9.707-3.755,17.685-11.328,22.208-20.501c8.405,1.792,18.027,0.533,26.773-3.861c8.555-4.309,14.741-10.901,17.813-18.603    c8.491,0.448,17.237-2.56,24.469-8.768C407.979,346.407,411.349,330.109,404.267,315.41z"
                fill="#ffffff" />
            <path
                d="M213.333,138.663h-96c-5.888,0-10.667,4.779-10.667,10.667s4.779,10.667,10.667,10.667h96    c5.888,0,10.667-4.779,10.667-10.667S219.221,138.663,213.333,138.663z"
                fill="#ffffff" />
            <path
                d="M435.52,292.711c-3.307-4.885-9.92-6.229-14.805-2.901l-31.189,20.949c-4.885,3.285-6.187,9.92-2.901,14.805    c2.069,3.051,5.44,4.715,8.875,4.715c2.027,0,4.096-0.576,5.931-1.813l31.189-20.949    C437.504,304.231,438.805,297.597,435.52,292.711z"
                fill="#ffffff" />
            <path
                d="M369.301,343.613c-7.637-6.016-41.792-40.981-62.912-62.997c-4.075-4.267-10.837-4.416-15.083-0.32    c-4.267,4.075-4.395,10.837-0.32,15.083c5.483,5.717,53.845,56.128,65.088,65.003c1.941,1.536,4.288,2.283,6.592,2.283    c3.136,0,6.272-1.408,8.405-4.075C374.72,353.981,373.931,347.261,369.301,343.613z"
                fill="#ffffff" />
            <path
                d="M326.677,365.01c-12.779-10.219-44.885-44.331-52.139-52.224c-4.011-4.352-10.731-4.608-15.083-0.64    c-4.331,3.989-4.629,10.752-0.64,15.083c0.384,0.405,38.699,41.771,54.528,54.443c1.963,1.557,4.331,2.325,6.656,2.325    c3.115,0,6.229-1.387,8.341-3.989C332.011,375.399,331.264,368.679,326.677,365.01z"
                fill="#ffffff" />
            <path
                d="M284.224,386.493c-15.211-12.821-46.336-45.952-52.416-52.459c-4.032-4.309-10.795-4.544-15.083-0.512    c-4.309,4.032-4.523,10.773-0.512,15.083c8.747,9.365,38.528,40.939,54.251,54.208c2.005,1.685,4.437,2.517,6.869,2.517    c3.029,0,6.059-1.301,8.171-3.797C289.301,397.01,288.725,390.29,284.224,386.493z"
                fill="#ffffff" />
            <path
                d="M124.672,120.253C106.389,102.93,33.28,97.319,11.307,96.018c-3.029-0.149-5.824,0.853-7.957,2.88    C1.216,100.903,0,103.719,0,106.663v192c0,5.888,4.779,10.667,10.667,10.667h64c4.608,0,8.704-2.965,10.133-7.36    c1.557-4.779,38.315-117.589,43.157-173.056C128.235,125.671,127.04,122.471,124.672,120.253z M66.88,287.997H21.333V118.098    c34.283,2.709,71.275,8.597,84.715,15.125C100.395,179.943,74.816,262.951,66.88,287.997z"
                fill="#ffffff" />
            <path
                d="M501.333,117.33c-83.755,0-130.219,21.44-132.16,22.336c-2.773,1.301-4.843,3.712-5.696,6.635s-0.427,6.059,1.173,8.661    c13.184,21.227,54.464,139.115,62.4,167.872c1.28,4.629,5.483,7.829,10.283,7.829h64c5.888,0,10.667-4.779,10.667-10.667v-192    C512,122.087,507.221,117.33,501.333,117.33z M490.667,309.33h-45.355c-10.112-32.939-39.979-118.827-56.64-154.325    c16.277-5.525,51.243-15.019,101.995-16.213V309.33z"
                fill="#ffffff" />
        </g>
        <path
            d="M 399.414062 218.605469 C 386.246094 207.839844 367.597656 204.394531 351.898438 209.824219 C 347.691406 211.28125 343.785156 213.324219 340.285156 215.898438 C 331.359375 222.464844 311.542969 242.175781 295.839844 261.683594 L 295.839844 111.3125 C 295.839844 98.53125 290.585938 86.039062 281.425781 77.035156 C 272.332031 68.097656 260.386719 63.277344 247.851562 63.511719 C 242.160156 63.613281 236.707031 64.742188 231.667969 66.714844 L 231.667969 52.027344 C 231.667969 38.117188 225.949219 24.519531 215.972656 14.714844 C 206.085938 4.996094 193.148438 -0.242188 179.464844 0.0078125 C 152.183594 0.480469 129.910156 22.65625 129.09375 49.765625 C 123.183594 47.085938 116.765625 45.582031 110.121094 45.382812 C 96.261719 44.976562 82.535156 50.339844 72.472656 60.109375 C 62.617188 69.675781 57.1875 82.304688 57.1875 95.632812 L 57.152344 109.875 C 52.898438 108.476562 48.363281 107.710938 43.648438 107.710938 C 19.855469 107.710938 0.5 127.066406 0.5 150.855469 L 0.515625 369.441406 L 0.550781 370.476562 C 2.539062 399.164062 8.542969 423.726562 18.402344 443.484375 C 27.644531 462.007812 40.539062 476.921875 56.726562 487.8125 C 88.582031 509.25 127.933594 512 158.65625 512 C 218.988281 512 273.265625 482.003906 300.410156 433.691406 C 303.710938 428.371094 312.410156 414.691406 321.804688 399.9375 C 330.953125 385.5625 339.464844 372.316406 346.96875 360.628906 C 351.09375 354.203125 354.847656 348.359375 358.105469 343.265625 C 370.242188 324.285156 383.175781 305.882812 396.550781 288.566406 C 401.511719 282.144531 403.039062 280.402344 403.386719 280.019531 C 409.648438 273.1875 413.59375 264.824219 414.796875 255.828125 C 416.691406 241.714844 411.082031 228.144531 399.414062 218.605469 Z M 385.03125 251.84375 C 384.644531 254.71875 383.335938 257.445312 381.246094 259.726562 C 380.15625 260.917969 378.207031 263.183594 372.785156 270.207031 C 358.867188 288.222656 345.414062 307.359375 332.800781 327.085938 C 329.550781 332.167969 325.8125 337.988281 321.695312 344.398438 C 314.175781 356.109375 305.652344 369.386719 296.46875 383.808594 C 286.855469 398.910156 277.957031 412.898438 274.699219 418.160156 L 274.359375 418.738281 C 252.574219 457.738281 208.242188 481.964844 158.660156 481.964844 C 132.203125 481.964844 98.609375 479.796875 73.496094 462.898438 C 47.871094 445.65625 33.824219 414.914062 30.550781 368.914062 L 30.535156 150.859375 C 30.535156 143.628906 36.417969 137.746094 43.648438 137.746094 C 50.921875 137.746094 56.839844 143.628906 56.839844 150.859375 L 56.839844 232.660156 C 56.839844 232.902344 56.867188 233.136719 56.875 233.378906 C 56.890625 233.644531 56.890625 233.914062 56.917969 234.179688 C 56.941406 234.417969 56.988281 234.648438 57.023438 234.882812 C 57.0625 235.144531 57.089844 235.410156 57.140625 235.671875 C 57.191406 235.90625 57.261719 236.136719 57.320312 236.367188 C 57.382812 236.613281 57.433594 236.867188 57.511719 237.109375 C 57.582031 237.34375 57.675781 237.570312 57.761719 237.796875 C 57.84375 238.027344 57.917969 238.261719 58.015625 238.488281 C 58.109375 238.714844 58.222656 238.929688 58.328125 239.148438 C 58.433594 239.367188 58.53125 239.589844 58.644531 239.804688 C 58.757812 240.015625 58.894531 240.21875 59.019531 240.425781 C 59.144531 240.632812 59.261719 240.84375 59.394531 241.042969 C 59.53125 241.242188 59.683594 241.429688 59.828125 241.621094 C 59.972656 241.816406 60.105469 242.015625 60.257812 242.199219 C 60.410156 242.382812 60.578125 242.550781 60.734375 242.726562 C 60.898438 242.90625 61.054688 243.097656 61.226562 243.269531 C 61.394531 243.433594 61.570312 243.582031 61.746094 243.742188 C 61.925781 243.90625 62.101562 244.082031 62.292969 244.238281 C 62.472656 244.386719 62.664062 244.519531 62.851562 244.660156 C 63.050781 244.808594 63.242188 244.964844 63.445312 245.105469 C 63.636719 245.234375 63.839844 245.34375 64.035156 245.460938 C 64.25 245.59375 64.460938 245.734375 64.683594 245.859375 C 64.886719 245.96875 65.101562 246.058594 65.308594 246.160156 C 65.535156 246.273438 65.761719 246.390625 65.996094 246.492188 C 66.210938 246.585938 66.441406 246.65625 66.660156 246.738281 C 66.898438 246.824219 67.132812 246.921875 67.375 247 C 67.605469 247.070312 67.847656 247.121094 68.082031 247.183594 C 68.328125 247.246094 68.566406 247.320312 68.8125 247.371094 C 69.0625 247.421875 69.3125 247.449219 69.5625 247.488281 C 69.8125 247.523438 70.054688 247.574219 70.304688 247.601562 C 70.554688 247.625 70.8125 247.628906 71.066406 247.640625 C 71.316406 247.652344 71.566406 247.679688 71.820312 247.679688 C 71.832031 247.679688 71.847656 247.679688 71.859375 247.679688 C 72.378906 247.679688 72.890625 247.652344 73.394531 247.601562 C 73.613281 247.582031 73.828125 247.535156 74.046875 247.503906 C 74.324219 247.464844 74.609375 247.433594 74.882812 247.375 C 75.171875 247.316406 75.449219 247.234375 75.730469 247.160156 C 75.925781 247.105469 76.128906 247.066406 76.320312 247.007812 C 76.632812 246.910156 76.9375 246.789062 77.242188 246.671875 C 77.390625 246.613281 77.550781 246.566406 77.699219 246.503906 C 78.003906 246.375 78.292969 246.222656 78.585938 246.078125 C 78.726562 246.007812 78.871094 245.949219 79.011719 245.875 C 79.285156 245.726562 79.542969 245.554688 79.804688 245.390625 C 79.953125 245.300781 80.105469 245.21875 80.246094 245.121094 C 80.488281 244.960938 80.71875 244.777344 80.949219 244.597656 C 81.101562 244.484375 81.257812 244.378906 81.402344 244.257812 C 81.617188 244.085938 81.8125 243.890625 82.015625 243.703125 C 82.167969 243.566406 82.324219 243.433594 82.472656 243.292969 C 82.660156 243.105469 82.828125 242.902344 83.003906 242.707031 C 83.148438 242.546875 83.304688 242.390625 83.441406 242.226562 C 83.597656 242.035156 83.738281 241.832031 83.886719 241.632812 C 84.027344 241.445312 84.175781 241.265625 84.304688 241.070312 C 84.441406 240.871094 84.554688 240.664062 84.679688 240.457031 C 84.804688 240.25 84.941406 240.046875 85.058594 239.835938 C 85.171875 239.625 85.265625 239.40625 85.371094 239.191406 C 85.476562 238.96875 85.59375 238.75 85.691406 238.523438 C 85.785156 238.304688 85.855469 238.074219 85.9375 237.851562 C 86.027344 237.617188 86.121094 237.386719 86.199219 237.144531 C 86.269531 236.914062 86.320312 236.679688 86.378906 236.445312 C 86.441406 236.199219 86.515625 235.957031 86.570312 235.707031 C 86.617188 235.472656 86.644531 235.226562 86.679688 234.984375 C 86.722656 234.730469 86.769531 234.476562 86.796875 234.21875 C 86.824219 233.976562 86.824219 233.726562 86.835938 233.480469 C 86.851562 233.21875 86.878906 232.964844 86.878906 232.703125 L 87.226562 95.671875 C 87.226562 90.5 89.417969 85.523438 93.394531 81.660156 C 97.667969 77.515625 103.449219 75.226562 109.234375 75.40625 C 120.070312 75.730469 128.886719 85.15625 128.886719 96.441406 L 129.058594 231.867188 C 129.058594 232.140625 129.085938 232.40625 129.101562 232.671875 C 129.113281 232.910156 129.113281 233.15625 129.136719 233.390625 C 129.164062 233.671875 129.21875 233.941406 129.261719 234.214844 C 129.296875 234.4375 129.320312 234.664062 129.363281 234.882812 C 129.425781 235.179688 129.511719 235.46875 129.589844 235.757812 C 129.640625 235.945312 129.679688 236.136719 129.734375 236.320312 C 129.832031 236.632812 129.957031 236.9375 130.074219 237.242188 C 130.132812 237.394531 130.175781 237.550781 130.238281 237.699219 C 130.378906 238.023438 130.539062 238.339844 130.699219 238.652344 C 130.761719 238.769531 130.808594 238.894531 130.871094 239.007812 C 131.046875 239.332031 131.246094 239.640625 131.441406 239.945312 C 131.503906 240.046875 131.558594 240.148438 131.625 240.246094 C 131.832031 240.554688 132.058594 240.84375 132.285156 241.132812 C 132.355469 241.222656 132.417969 241.316406 132.488281 241.402344 C 132.742188 241.710938 133.015625 242 133.292969 242.285156 C 133.351562 242.347656 133.398438 242.410156 133.457031 242.46875 C 133.742188 242.753906 134.046875 243.019531 134.355469 243.28125 C 134.414062 243.332031 134.464844 243.386719 134.523438 243.4375 C 134.832031 243.691406 135.152344 243.921875 135.476562 244.148438 C 135.546875 244.199219 135.609375 244.253906 135.679688 244.300781 C 136.007812 244.523438 136.351562 244.722656 136.695312 244.917969 C 136.769531 244.960938 136.839844 245.011719 136.917969 245.054688 C 137.277344 245.246094 137.648438 245.417969 138.023438 245.585938 C 138.09375 245.617188 138.160156 245.65625 138.230469 245.6875 C 138.613281 245.847656 139.007812 245.984375 139.40625 246.117188 C 139.476562 246.136719 139.539062 246.167969 139.609375 246.191406 C 140.003906 246.3125 140.40625 246.410156 140.808594 246.5 C 140.890625 246.515625 140.96875 246.542969 141.050781 246.5625 C 142.027344 246.761719 143.039062 246.867188 144.074219 246.867188 C 144.082031 246.867188 144.089844 246.867188 144.097656 246.867188 C 144.359375 246.867188 144.617188 246.839844 144.875 246.828125 C 145.125 246.8125 145.375 246.8125 145.621094 246.789062 C 145.894531 246.757812 146.15625 246.707031 146.425781 246.664062 C 146.652344 246.628906 146.886719 246.605469 147.113281 246.558594 C 147.382812 246.503906 147.644531 246.425781 147.910156 246.355469 C 148.125 246.296875 148.339844 246.253906 148.550781 246.1875 C 148.820312 246.105469 149.078125 246 149.339844 245.898438 C 149.535156 245.824219 149.738281 245.765625 149.929688 245.683594 C 150.199219 245.566406 150.460938 245.429688 150.722656 245.300781 C 150.894531 245.214844 151.074219 245.140625 151.242188 245.050781 C 151.5 244.910156 151.746094 244.746094 151.996094 244.59375 C 152.15625 244.492188 152.324219 244.402344 152.480469 244.296875 C 152.71875 244.136719 152.941406 243.957031 153.167969 243.78125 C 153.324219 243.664062 153.484375 243.554688 153.636719 243.429688 C 153.851562 243.253906 154.054688 243.054688 154.261719 242.863281 C 154.40625 242.730469 154.558594 242.601562 154.703125 242.460938 C 154.894531 242.265625 155.074219 242.054688 155.257812 241.851562 C 155.394531 241.699219 155.539062 241.554688 155.671875 241.394531 C 155.835938 241.191406 155.984375 240.976562 156.136719 240.769531 C 156.269531 240.589844 156.410156 240.417969 156.535156 240.238281 C 156.675781 240.03125 156.792969 239.8125 156.921875 239.597656 C 157.042969 239.398438 157.175781 239.203125 157.285156 239 C 157.402344 238.785156 157.496094 238.558594 157.601562 238.339844 C 157.707031 238.121094 157.824219 237.910156 157.917969 237.683594 C 158.007812 237.46875 158.082031 237.242188 158.160156 237.019531 C 158.25 236.78125 158.347656 236.546875 158.421875 236.304688 C 158.492188 236.070312 158.542969 235.832031 158.605469 235.59375 C 158.667969 235.351562 158.742188 235.113281 158.789062 234.867188 C 158.839844 234.621094 158.867188 234.367188 158.90625 234.121094 C 158.941406 233.871094 158.992188 233.625 159.015625 233.375 C 159.042969 233.121094 159.042969 232.863281 159.054688 232.605469 C 159.070312 232.351562 159.09375 232.105469 159.09375 231.847656 L 159.09375 51.308594 C 159.09375 39.777344 168.46875 30.238281 179.988281 30.039062 C 185.546875 29.960938 190.828125 32.109375 194.925781 36.136719 C 199.191406 40.328125 201.636719 46.121094 201.636719 52.027344 L 201.636719 232.675781 C 201.636719 232.949219 201.664062 233.214844 201.679688 233.484375 C 201.691406 233.722656 201.691406 233.964844 201.714844 234.203125 C 201.742188 234.46875 201.796875 234.726562 201.835938 234.988281 C 201.875 235.226562 201.898438 235.464844 201.945312 235.695312 C 202 235.957031 202.078125 236.210938 202.144531 236.46875 C 202.203125 236.691406 202.246094 236.914062 202.316406 237.132812 C 202.402344 237.410156 202.511719 237.679688 202.613281 237.949219 C 202.683594 238.136719 202.742188 238.328125 202.820312 238.511719 C 202.941406 238.792969 203.082031 239.0625 203.21875 239.335938 C 203.296875 239.496094 203.367188 239.664062 203.453125 239.824219 C 203.601562 240.101562 203.773438 240.363281 203.941406 240.628906 C 204.03125 240.769531 204.109375 240.921875 204.207031 241.0625 C 204.386719 241.328125 204.585938 241.582031 204.785156 241.835938 C 204.882812 241.960938 204.96875 242.09375 205.070312 242.214844 C 205.289062 242.484375 205.53125 242.734375 205.769531 242.988281 C 205.863281 243.082031 205.945312 243.1875 206.039062 243.28125 C 206.285156 243.53125 206.550781 243.757812 206.816406 243.988281 C 206.914062 244.074219 207.003906 244.167969 207.105469 244.25 C 207.402344 244.496094 207.714844 244.71875 208.027344 244.941406 C 208.105469 244.996094 208.179688 245.058594 208.261719 245.117188 C 208.597656 245.34375 208.949219 245.550781 209.304688 245.75 C 209.371094 245.785156 209.429688 245.832031 209.496094 245.867188 C 209.886719 246.078125 210.285156 246.265625 210.695312 246.445312 C 210.734375 246.460938 210.769531 246.484375 210.808594 246.5 C 211.234375 246.679688 211.671875 246.835938 212.117188 246.976562 C 212.140625 246.988281 212.164062 246.996094 212.191406 247.003906 C 213.125 247.296875 214.097656 247.496094 215.101562 247.601562 C 215.109375 247.601562 215.113281 247.601562 215.121094 247.601562 C 215.625 247.652344 216.136719 247.679688 216.65625 247.679688 C 216.660156 247.679688 216.664062 247.679688 216.671875 247.679688 C 216.9375 247.679688 217.199219 247.652344 217.464844 247.640625 C 217.710938 247.625 217.957031 247.625 218.199219 247.601562 C 218.476562 247.574219 218.746094 247.519531 219.019531 247.476562 C 219.242188 247.441406 219.46875 247.417969 219.691406 247.371094 C 219.984375 247.3125 220.265625 247.226562 220.550781 247.152344 C 220.742188 247.101562 220.941406 247.0625 221.128906 247.003906 C 221.433594 246.90625 221.726562 246.789062 222.023438 246.675781 C 222.183594 246.613281 222.347656 246.5625 222.507812 246.496094 C 222.808594 246.367188 223.097656 246.21875 223.390625 246.070312 C 223.53125 246 223.679688 245.941406 223.820312 245.863281 C 224.105469 245.707031 224.378906 245.53125 224.65625 245.355469 C 224.789062 245.273438 224.925781 245.199219 225.058594 245.109375 C 225.339844 244.921875 225.601562 244.710938 225.867188 244.503906 C 225.980469 244.417969 226.101562 244.335938 226.214844 244.246094 C 226.476562 244.027344 226.722656 243.789062 226.972656 243.554688 C 227.074219 243.460938 227.183594 243.375 227.277344 243.277344 C 227.519531 243.035156 227.746094 242.777344 227.96875 242.515625 C 228.0625 242.414062 228.160156 242.316406 228.25 242.210938 C 228.464844 241.949219 228.660156 241.671875 228.855469 241.398438 C 228.9375 241.28125 229.03125 241.171875 229.113281 241.054688 C 229.296875 240.78125 229.460938 240.496094 229.625 240.210938 C 229.703125 240.078125 229.792969 239.953125 229.867188 239.816406 C 230.023438 239.527344 230.15625 239.226562 230.292969 238.925781 C 230.359375 238.785156 230.4375 238.648438 230.496094 238.503906 C 230.621094 238.210938 230.722656 237.90625 230.828125 237.605469 C 230.882812 237.445312 230.953125 237.289062 231.003906 237.121094 C 231.089844 236.835938 231.15625 236.535156 231.230469 236.242188 C 231.273438 236.054688 231.332031 235.871094 231.371094 235.683594 C 231.429688 235.394531 231.464844 235.09375 231.507812 234.800781 C 231.535156 234.597656 231.578125 234.398438 231.597656 234.191406 C 231.628906 233.917969 231.628906 233.636719 231.640625 233.355469 C 231.652344 233.125 231.675781 232.898438 231.675781 232.660156 L 231.675781 108.707031 C 232.652344 100.328125 239.765625 93.691406 248.378906 93.542969 C 252.804688 93.46875 257.078125 95.210938 260.378906 98.457031 C 263.832031 101.847656 265.8125 106.535156 265.8125 111.3125 L 265.8125 288.574219 L 265.820312 289.246094 C 265.902344 298.976562 272.292969 307.199219 281.71875 309.707031 C 291.082031 312.195312 300.648438 308.261719 305.570312 299.832031 L 305.664062 299.664062 C 317.4375 279.09375 348.90625 246.851562 358.09375 240.09375 C 359.15625 239.308594 360.378906 238.679688 361.726562 238.210938 C 367.710938 236.144531 375.214844 237.609375 380.410156 241.859375 C 382.855469 243.863281 385.648438 247.222656 385.03125 251.84375 Z M 385.03125 251.84375 "
            transform="matrix(0.11718762665987015 0 0 0.11718762665987015 308 267)" fill="#ffffff"
            fill-opacity="1" stroke="none" id="L1_1" />
        <g transform="matrix(0.1455557942390442 0 0 0.1455557942390442 103.82264703198803 163.0334013818158)"
            id="L1_2">
            <path
                d="m255.417 65.563c4.143 0 7.5-3.357 7.5-7.5v-50.563c0-4.143-3.357-7.5-7.5-7.5s-7.5 3.357-7.5 7.5v50.563c0 4.143 3.357 7.5 7.5 7.5z"
                fill="#ffffff" />
            <path
                d="m115.487 119.132c2.93 2.928 7.677 2.928 10.607 0 2.929-2.93 2.929-7.678 0-10.607l-35.754-35.755c-2.929-2.927-7.677-2.929-10.607 0-2.929 2.93-2.929 7.678 0 10.607z"
                fill="#ffffff" />
            <path
                d="m65.027 240.953h-50.564c-4.143 0-7.5 3.357-7.5 7.5s3.357 7.5 7.5 7.5h50.563c4.143 0 7.5-3.357 7.5-7.5s-3.357-7.5-7.499-7.5z"
                fill="#ffffff" />
            <path
                d="m115.487 377.775-35.754 35.754c-2.929 2.93-2.929 7.678 0 10.607 2.93 2.928 7.677 2.928 10.607 0l35.754-35.754c2.929-2.93 2.929-7.678 0-10.607-2.929-2.927-7.677-2.927-10.607 0z"
                fill="#ffffff" />
            <path
                d="m395.346 377.775c-2.93-2.928-7.678-2.928-10.607 0-2.929 2.93-2.929 7.678 0 10.607l35.754 35.754c2.93 2.928 7.677 2.928 10.607 0 2.929-2.93 2.929-7.678 0-10.607z"
                fill="#ffffff" />
            <path
                d="m496.37 240.953h-50.563c-4.143 0-7.5 3.357-7.5 7.5s3.357 7.5 7.5 7.5h50.563c4.143 0 7.5-3.357 7.5-7.5s-3.358-7.5-7.5-7.5z"
                fill="#ffffff" />
            <path
                d="m420.493 72.77-35.754 35.755c-2.929 2.93-2.929 7.678 0 10.607 2.93 2.928 7.677 2.928 10.607 0l35.754-35.755c2.929-2.93 2.929-7.678 0-10.607-2.93-2.928-7.678-2.928-10.607 0z"
                fill="#ffffff" />
            <path
                d="m403.579 233.293c0-82.872-66.465-150.293-148.162-150.293-28.618 0-56.394 8.293-80.324 23.982-23.282 15.265-41.842 36.74-53.673 62.103-1.751 3.754-.127 8.217 3.626 9.968 3.757 1.753 8.217.127 9.968-3.626 21.939-47.035 69.2-77.427 120.403-77.427 73.426 0 133.162 60.692 133.162 135.293 0 35.434-13.39 68.934-37.702 94.327-14.013 14.635-25.941 28.619-29.01 48.213h-130.939c-3.867-20.341-17.742-34.612-30.21-47.425-24.803-25.49-38.463-59.27-38.463-95.115 0-8.851.847-17.703 2.516-26.312.789-4.066-1.868-8.002-5.935-8.791-4.066-.783-8.002 1.869-8.791 5.936-1.852 9.547-2.79 19.36-2.79 29.167 0 39.775 15.169 77.27 42.713 105.576 15.819 16.256 27.017 29.232 27.017 48.251 0 .066.001.134.003.2l.43 44.013c0 14.279 7.617 26.812 19 33.752v8.248c0 20.678 16.822 37.5 37.5 37.5h46c20.678 0 37.5-16.822 37.5-37.5v-8.248c11.383-6.94 19-19.473 19-33.752 0 0-.053-49.026-.153-49.515 1.423-17.382 11.959-29.737 25.447-43.825 26.997-28.199 41.867-65.383 41.867-104.7zm-101.162 240.04c0 12.406-10.094 22.5-22.5 22.5h-46c-12.406 0-22.5-10.094-22.5-22.5v-2.891c1.799.252 3.633.391 5.5.391h80c1.867 0 3.701-.14 5.5-.391zm-5.5-17.5h-80c-13.51 0-24.5-10.99-24.5-24.5v-.5h76c4.143 0 7.5-3.357 7.5-7.5s-3.357-7.5-7.5-7.5h-76v-25h128.768l.232 25h-18c-4.143 0-7.5 3.357-7.5 7.5s3.357 7.5 7.5 7.5h18v.5c0 13.51-10.991 24.5-24.5 24.5z"
                fill="#ffffff" />
            <path
                d="m304.177 234.285c-2.54 3.271-1.947 7.983 1.324 10.523 3.27 2.541 7.982 1.949 10.523-1.324l14.848-19.121c3.932-5.063 5.656-11.354 4.856-17.715-.801-6.361-4.03-12.029-9.094-15.961-5.063-3.932-11.358-5.666-17.715-4.855-6.361.8-12.029 4.029-15.96 9.093l-48.439 62.384-27.8-30.759c-8.875-9.816-24.082-10.582-33.897-1.711-4.756 4.299-7.553 10.192-7.877 16.595-.323 6.402 1.866 12.547 6.164 17.304l47.001 52c9.461 10.974 28.156 10.301 36.761-1.374l29.685-38.23c2.54-3.271 1.947-7.983-1.324-10.523s-7.982-1.949-10.523 1.324l-29.685 38.23c-3.222 4.378-10.253 4.633-13.785.515l-47-52c-3.328-3.682-3.04-9.384.643-12.712 3.68-3.324 9.383-3.04 12.711.643l33.8 37.396c2.946 3.416 8.802 3.22 11.488-.43l53.927-69.451c2.887-3.882 8.873-4.635 12.628-1.589 3.883 2.888 4.635 8.869 1.589 12.629z"
                fill="#ffffff" />
        </g>
        <g transform="matrix(0.13876040279865265 0 0 0.13876040279865265 152.00000030489343 282)"
            id="L1_3">
            <path
                d="M216.529,93.2c-61.2,0-111.2,50-111.2,111.2c0,32,14,62.8,37.6,83.6c17.6,17.6,16,55.2,15.6,55.6     c0,2,0.4,3.6,2,5.2c1.2,1.2,3.2,2,4.8,2h102c2,0,3.6-0.8,4.8-2c1.2-1.2,2-3.2,2-5.2c0-0.4-2-38,15.6-55.6     c0.4-0.4,0.8-0.8,1.2-1.2c23.2-21.2,36.8-51.2,36.8-82.4C327.729,143.2,277.729,93.2,216.529,93.2z M280.529,277.6     c-0.4,0.4-1.2,1.2-1.2,1.6c-15.6,16.8-18.4,44.4-18.8,57.6h-88.4c-0.4-13.2-3.2-42-20-59.2c-21.2-18.4-33.6-45.2-33.6-73.6     c0-54,43.6-97.6,97.6-97.6s97.6,43.6,97.6,97.6C313.729,232.4,301.729,259.2,280.529,277.6z"
                fill="#ffffff" />
            <path
                d="M216.129,121.6c-3.6,0-6.8,3.2-6.8,6.8c0,3.6,3.2,6.8,6.8,6.8c40.4,0,72.8,32.8,72.8,72.8     c0,3.6,3.2,6.8,6.8,6.8c3.6,0,6.8-3.2,6.8-6.8C302.929,160.4,264.129,121.6,216.129,121.6z"
                fill="#ffffff" />
            <path
                d="M260.529,358.4h-88.8c-9.2,0-16.8,7.6-16.8,16.8s7.6,16.8,16.8,16.8h88.4     c9.6-0.4,17.2-7.6,17.2-16.8C277.329,366,269.729,358.4,260.529,358.4z M260.529,378h-88.8c-1.6,0-3.2-1.2-3.2-3.2     s1.2-3.2,3.2-3.2h88.4c1.6,0,3.2,1.2,3.2,3.2S262.129,378,260.529,378z"
                fill="#ffffff" />
            <path
                d="M247.329,398.8h-62.4c-9.2,0-16.8,7.6-16.8,16.8s7.6,16.8,16.8,16.8h62.4     c9.2,0,16.8-7.6,16.8-16.8C264.129,406,256.529,398.8,247.329,398.8z M247.329,418.4h-62.4c-1.6,0-3.2-1.2-3.2-3.2     s1.2-3.2,3.2-3.2h62.4c1.6,0,3.2,1.2,3.2,3.2S248.929,418.4,247.329,418.4z"
                fill="#ffffff" />
            <path
                d="M216.129,60c4,0,6.8-3.2,6.8-6.8V6.8c0-3.6-3.2-6.8-6.8-6.8c-3.6,0-6.8,3.2-6.8,6.8v46.4     C209.329,56.8,212.529,60,216.129,60z"
                fill="#ffffff" />
            <path
                d="M329.329,34.4c-3.2-2.4-7.2-1.2-9.2,1.6l-25.6,38.4c-2.4,3.2-1.6,7.6,1.6,9.6     c1.2,0.8,2.4,1.2,3.6,1.2c2.4,0,4.4-1.2,5.6-3.2l25.6-38.4C333.329,40.8,332.529,36.4,329.329,34.4z"
                fill="#ffffff" />
            <path
                d="M134.929,83.6c1.2,0,2.4-0.4,3.6-1.2c3.2-2,4-6.4,2-9.6l-24.8-38.8c-2-3.2-6.4-4-9.6-2     s-4,6.4-2,9.6l24.8,38.8C130.529,82.8,132.529,83.6,134.929,83.6z"
                fill="#ffffff" />
            <path
                d="M86.529,126l-40.4-22c-3.2-1.6-7.6-0.4-9.2,2.8c-2,3.2-0.8,7.6,2.8,9.2l40.4,22     c1.2,0.4,2,0.8,3.2,0.8c2.4,0,4.8-1.2,6-3.6C90.929,132,89.729,127.6,86.529,126z"
                fill="#ffffff" />
            <path
                d="M395.729,106.8c-1.6-3.2-6-4.4-9.2-2.8l-40.8,22c-3.2,1.6-4.4,6-2.8,9.2c1.2,2.4,3.6,3.6,6,3.6     c1.2,0,2.4-0.4,3.2-0.8l40.8-22C396.129,114.4,397.329,110,395.729,106.8z"
                fill="#ffffff" />
        </g>
        <path
            d="m504.5 401.214c4.143 0 7.5-3.358 7.5-7.5v-11.494c0-20.734-13.23-39.024-32.926-45.514l-46.877-15.424v-16.23c16.323-9.793 27.274-27.66 27.274-48.041v-32.325c0-30.872-25.116-55.988-55.988-55.988-18.184 0-34.365 8.72-44.599 22.191-5.665-10.631-15.272-18.922-27.299-22.872l-46.872-15.432v-16.23c16.323-9.793 27.274-27.66 27.274-48.041v-32.326c.001-30.872-25.115-55.988-55.987-55.988s-55.988 25.116-55.988 55.988v32.325c0 20.381 10.951 38.248 27.274 48.041v16.23l-46.867 15.431c-12.03 3.952-21.638 12.243-27.303 22.874-10.234-13.472-26.415-22.191-44.599-22.191-30.872 0-55.988 25.116-55.988 55.988v32.325c0 20.381 10.951 38.248 27.274 48.041v16.23l-46.881 15.425c-19.692 6.489-32.922 24.779-32.922 45.513v11.494c0 4.142 3.357 7.5 7.5 7.5s7.5-3.358 7.5-7.5v-11.494c0-14.244 9.089-26.809 22.613-31.266l43.911-14.449c4.013 11.025 14.597 18.919 26.992 18.919 12.394 0 22.978-7.895 26.991-18.919l43.905 14.447c9.624 3.172 17.081 10.478 20.53 19.737l-19.528 6.427c-19.697 6.482-32.931 24.77-32.931 45.505v8.717h-90.056v-18.765c0-4.142-3.357-7.5-7.5-7.5s-7.5 3.358-7.5 7.5v18.765h-27.427v-2.59c0-4.142-3.357-7.5-7.5-7.5s-7.5 3.358-7.5 7.5v10.09c0 4.142 3.357 7.5 7.5 7.5h139.983v58.16c0 4.142 3.357 7.5 7.5 7.5h202.033c4.143 0 7.5-3.358 7.5-7.5v-10.018c0-4.142-3.357-7.5-7.5-7.5s-7.5 3.358-7.5 7.5v2.52h-27.426v-44.018c0-4.142-3.357-7.5-7.5-7.5s-7.5 3.358-7.5 7.5v44.018h-102.18v-44.018c0-4.142-3.357-7.5-7.5-7.5s-7.5 3.358-7.5 7.5v44.018h-27.427v-74.377c0-14.243 9.09-26.805 22.62-31.257l43.906-14.45c4.014 11.023 14.597 18.917 26.991 18.917s22.977-7.893 26.991-18.917l43.906 14.45c13.53 4.453 22.62 17.014 22.62 31.257v36.842c0 4.142 3.357 7.5 7.5 7.5s7.5-3.358 7.5-7.5v-13.125h139.983c4.143 0 7.5-3.358 7.5-7.5v-10.09c0-4.142-3.357-7.5-7.5-7.5s-7.5 3.358-7.5 7.5v2.59h-27.427v-18.765c0-4.142-3.357-7.5-7.5-7.5s-7.5 3.358-7.5 7.5v18.765h-90.057v-8.717c0-20.736-13.234-39.023-32.931-45.505l-19.528-6.427c3.449-9.258 10.905-16.564 20.526-19.736l43.909-14.448c4.013 11.024 14.597 18.919 26.991 18.919 12.395 0 22.979-7.895 26.992-18.919l43.907 14.448c13.529 4.456 22.618 17.021 22.618 31.265v11.494c0 4.142 3.357 7.5 7.5 7.5zm-101.017-217.517c22.601 0 40.988 18.387 40.988 40.988v32.325c0 22.601-18.388 40.988-40.988 40.988s-40.987-18.387-40.987-40.988v-32.325c0-22.601 18.387-40.988 40.987-40.988zm-188.471-95.384v-32.325c0-22.601 18.387-40.988 40.988-40.988s40.988 18.387 40.988 40.988v32.325c0 22.601-18.388 40.988-40.988 40.988s-40.988-18.387-40.988-40.988zm40.988 55.988c4.73 0 9.323-.595 13.714-1.705v15.217c-.002.071-.001.141 0 .211-.006 7.557-6.155 13.703-13.713 13.703s-13.708-6.146-13.713-13.703c0-.071.001-.141 0-.211v-15.217c4.389 1.109 8.982 1.705 13.712 1.705zm-70.895 37.963 43.903-14.455c4.013 11.024 14.597 18.918 26.991 18.918s22.978-7.894 26.991-18.918l43.908 14.456c12.537 4.118 21.231 15.097 22.446 28.149-1.203 4.558-1.85 9.34-1.85 14.271v32.325c0 1.9.097 3.778.283 5.63h-35.853c-1.288-29.738-25.876-53.537-55.926-53.537s-54.638 23.799-55.926 53.537h-35.853c.186-1.852.283-3.73.283-5.63v-32.325c0-4.931-.647-9.712-1.85-14.271 1.217-13.051 9.912-24.03 22.453-28.15zm70.895 156.14c-22.601 0-40.988-18.387-40.988-40.988v-32.325c0-22.601 18.388-40.988 40.988-40.988s40.988 18.387 40.988 40.988v32.325c0 22.601-18.387 40.988-40.988 40.988zm-188.472-81.394v-32.325c0-22.601 18.388-40.988 40.988-40.988s40.987 18.387 40.987 40.988v32.325c0 22.601-18.387 40.988-40.987 40.988s-40.988-18.387-40.988-40.988zm54.701 69.701c0 7.562-6.151 13.713-13.713 13.713s-13.714-6.152-13.714-13.713v-15.418c4.39 1.11 8.983 1.705 13.714 1.705 4.73 0 9.323-.595 13.713-1.705zm61.875 9.995-46.874-15.424v-16.231c10.489-6.293 18.748-15.924 23.319-27.411h39.463v19.776c0 20.381 10.951 38.248 27.274 48.041v16.233l-13.099 4.311c-4.927-13.743-15.878-24.613-30.083-29.295zm71.896 44.126c-7.562 0-13.714-6.152-13.714-13.714v-.091c0-.015 0-.03 0-.044v-15.283c4.39 1.11 8.983 1.705 13.714 1.705s9.323-.595 13.714-1.705v15.283.044.091c0 7.562-6.152 13.714-13.714 13.714zm71.893-44.125c-14.202 4.681-25.153 15.551-30.079 29.295l-13.1-4.311v-16.233c16.323-9.793 27.274-27.66 27.274-48.041v-19.777h39.463c4.571 11.488 12.83 21.119 23.319 27.411v16.231zm75.59 3.718c-7.562 0-13.713-6.152-13.713-13.713v-15.418c4.39 1.11 8.983 1.705 13.713 1.705s9.323-.595 13.714-1.705v15.418c0 7.561-6.152 13.713-13.714 13.713z"
            transform="matrix(0.1171875 0 0 0.1171875 54 255.00000082969666)" id="L1_4"
            fill="#ffffff" />
        <g transform="matrix(0.1171875 0 0 0.1171875 84 -12)" id="L1_5">
            <path
                d="m437.652 50.969c0-4.143-3.357-7.5-7.5-7.5h-348.307c-4.142 0-7.5 3.357-7.5 7.5s3.358 7.5 7.5 7.5h348.307c4.143 0 7.5-3.358 7.5-7.5z"
                fill="#ffffff" />
            <path
                d="m81.845 81.195c-4.142 0-7.5 3.357-7.5 7.5s3.358 7.5 7.5 7.5h174.153c4.143 0 7.5-3.357 7.5-7.5s-3.357-7.5-7.5-7.5z"
                fill="#ffffff" />
            <path
                d="m58.328 143.73h26.352l-7.509 41.696c-.878 4.874 1.461 9.729 5.819 12.08 4.358 2.353 9.699 1.642 13.292-1.769l54.788-52.008h209.859l54.788 52.008c3.603 3.42 8.947 4.114 13.293 1.769 4.358-2.353 6.696-7.207 5.817-12.08l-7.509-41.696h26.352c22.755 0 41.268-18.513 41.268-41.268v-14.663c0-4.143-3.357-7.5-7.5-7.5s-7.5 3.357-7.5 7.5v14.664c0 14.484-11.783 26.268-26.268 26.268h-26.953c-9.039 0-15.868 8.181-14.268 17.066l5.683 31.552-47.021-44.636c-2.707-2.568-6.251-3.982-9.98-3.982h-210.263c-3.73 0-7.275 1.415-9.981 3.983l-47.021 44.635 5.682-31.552c1.603-8.901-5.242-17.066-14.268-17.066h-26.952c-14.484 0-26.268-11.783-26.268-26.268v-61.195c0-14.485 11.784-26.268 26.268-26.268h395.342c14.484 0 26.268 11.783 26.268 26.268v11.479c0 4.143 3.357 7.5 7.5 7.5s7.5-3.357 7.5-7.5v-11.479c-.001-22.755-18.514-41.268-41.268-41.268h-395.342c-22.755 0-41.268 18.513-41.268 41.268v61.195c0 22.755 18.513 41.267 41.268 41.267z"
                fill="#ffffff" />
            <path
                d="m492.399 460.781v-46.604l17.326-82.963c12.21-58.471-32.449-113.265-92.056-113.265h-105.553c-6.582 0-11.938 5.355-11.938 11.938 0 13.148 6.361 24.838 16.166 32.155-7.013 15.005-10.694 31.482-10.693 48.008l-.245 19.794c-.009.687-.17 1.379-.467 2.001l-12.888 27.055c-6.269 13.165 3.352 28.312 17.867 28.312 3.211 0 5.042 2.495 5.042 5.039l.003 34.458c.002 15.622 12.643 28.317 28.312 28.317h.044l36.759-.025h.007c2.486 0 4.745 1.041 6.361 2.932 1.617 1.892 2.294 4.288 1.904 6.747l-.944 5.968-4.05.39c-9.743.938-17.091 9.025-17.091 18.813v3.249c0 10.422 8.479 18.9 18.9 18.9h106.201c10.422 0 18.9-8.479 18.9-18.9v-13.472c.002-9.887-7.66-18.282-17.867-18.847zm-74.729-227.832c50.204 0 87.614 46.156 77.372 95.198l-16.238 77.754h-18.537c-8.724 0-15.82-7.097-15.82-15.82v-15.221c0-10.354-4.888-20.319-13.073-26.657l-26.137-20.237c-7.861-6.088-12.555-15.658-12.555-25.601 0-26.124-21.254-47.377-47.378-47.377h-5.024c-12.804 0-23.399-9.637-24.915-22.039zm-19.821 215.237c-4.447-5.202-10.921-8.185-17.764-8.185-.006 0-.012 0-.017 0l-36.766.025c-.007 0-.014 0-.021 0-7.29 0-13.319-5.892-13.319-13.319l-.003-34.457c0-10.488-8.184-20.038-20.043-20.038-3.502 0-5.847-3.664-4.323-6.861l12.888-27.056c1.224-2.568 1.888-5.428 1.922-8.268l.246-19.885c0-14.34 3.165-28.574 9.189-41.541 7.113 1.92 11.978 1.247 15.464 1.387 17.854 0 32.378 14.524 32.378 32.377 0 14.549 6.868 28.553 18.371 37.461l26.137 20.236c4.544 3.519 7.257 9.051 7.257 14.798v15.221c0 16.994 13.826 30.82 30.82 30.82h17.133v41.083l-74.57 7.179.338-2.139c1.072-6.765-.867-13.631-5.317-18.838zm97.419 44.914c0 2.15-1.75 3.9-3.9 3.9h-106.201c-2.15 0-3.9-1.75-3.9-3.9v-3.249c0-2.02 1.517-3.688 3.527-3.882 20.202-1.945 84.56-8.14 106.201-10.224 2.242-.227 4.273 1.541 4.273 3.883z"
                fill="#ffffff" />
            <path
                d="m207.057 331.846c-.3-.632-.457-1.306-.466-2.004l-.245-19.699c0-16.609-3.681-33.096-10.694-48.101 9.805-7.318 16.166-19.007 16.166-32.155 0-6.582-5.355-11.938-11.938-11.938h-105.552c-59.731 0-104.241 54.915-92.055 113.265l4.699 22.502c.847 4.055 4.816 6.656 8.875 5.809 4.055-.847 6.655-4.82 5.809-8.875l-4.699-22.502c-10.263-49.145 27.271-95.198 77.372-95.198h102.306c-1.515 12.402-12.111 22.039-24.916 22.039h-5.024c-26.124 0-47.377 21.253-47.377 47.377 0 9.942-4.693 19.513-12.555 25.601l-26.136 20.237c-8.187 6.338-13.074 16.304-13.074 26.657v15.221c0 8.724-7.097 15.82-15.82 15.82h-18.54l-4.343-20.797c-.847-4.055-4.82-6.65-8.875-5.809-4.055.847-6.655 4.82-5.809 8.875l5.431 26.006v46.606c-10.28.576-17.869 9.024-17.869 18.845v13.472c0 10.422 8.479 18.9 18.9 18.9h106.202c10.422 0 18.9-8.479 18.9-18.9v-3.249c0-9.788-7.347-17.876-17.089-18.813l-4.052-.39-.944-5.967c-.8-5.06 3.084-9.679 8.267-9.679h.006l36.752.025h.044c15.499 0 28.317-12.524 28.318-28.317l.002-34.458c0-2.619 2.029-5.073 4.732-5.042 14.591.253 24.524-14.986 18.177-28.31zm-76.326 158.005v3.249c0 2.15-1.75 3.9-3.9 3.9h-106.202c-2.151 0-3.9-1.75-3.9-3.9v-13.472c0-2.199 1.798-3.902 3.882-3.902.292 0 106.481 10.232 106.593 10.243 2.01.193 3.527 1.862 3.527 3.882zm71.347-117.639c-.027 0-.055-.001-.083-.001-11.008-.204-19.958 9.01-19.959 20.038l-.002 34.458c-.001 7.36-5.953 13.319-13.325 13.319-.007 0-.014 0-.021 0l-36.758-.025c-.006 0-.011 0-.017 0-14.337 0-25.331 12.815-23.083 27.022l.338 2.139-74.57-7.179v-41.083h17.133c16.994 0 30.82-13.826 30.82-30.82v-15.22c0-5.747 2.713-11.279 7.257-14.798l26.136-20.237c11.504-8.907 18.372-22.911 18.372-37.46 0-17.853 14.524-32.377 32.377-32.377 3.461-.139 8.361.531 15.465-1.387 6.025 12.968 9.189 27.212 9.189 41.634l.245 19.792c.035 2.842.7 5.701 1.923 8.269l12.888 27.055c1.519 3.188-.811 6.861-4.325 6.861z"
                fill="#ffffff" />
        </g>
        <g transform="matrix(0.09040621408975404 0.014125970875348073 -0.014125970875348073 0.09040621408975404 258.7188816399015 154.058329011315)"
            id="L1_6">
            <path
                d="m512 110c0-13.815-9.39-25.473-22.121-28.943 1.364-3.424 2.121-7.152 2.121-11.057 0-13.815-9.39-25.473-22.121-28.943 1.364-3.424 2.121-7.152 2.121-11.057 0-16.542-13.458-30-30-30h-107.8c-22.395 0-45.021 5.338-65.473 15.456l-9.088 4.544h-109.639c-3.904 0-7.633.758-11.057 2.121-3.47-12.731-15.128-22.121-28.943-22.121s-25.473 9.39-28.943 22.121c-3.424-1.363-7.153-2.121-11.057-2.121-13.815 0-25.473 9.39-28.943 22.121-3.424-1.363-7.153-2.121-11.057-2.121-16.542 0-30 13.458-30 30v107.8c0 42.151 18.136 69.698 20 74.561v109.639c0 3.904.758 7.633 2.121 11.057-12.731 3.47-22.121 15.128-22.121 28.943s9.39 25.473 22.121 28.943c-1.363 3.424-2.121 7.153-2.121 11.057 0 13.815 9.39 25.473 22.121 28.943-1.363 3.424-2.121 7.153-2.121 11.057 0 16.542 13.458 30 30 30h24.099c5.523 0 10-4.477 10-10s-4.477-10-10-10h-24.099c-5.514 0-10-4.486-10-10s4.486-10 10-10h20c5.523 0 10-4.477 10-10s-4.477-10-10-10c-13.99 0-26.01 0-40 0-5.514 0-10-4.486-10-10s4.486-10 10-10h40c5.523 0 10-4.477 10-10s-4.477-10-10-10c-9.1 0-44.228 0-60 0-5.514 0-10-4.486-10-10s4.486-10 10-10h60c5.523 0 10-4.477 10-10s-4.477-10-10-10h-40c-5.514 0-10-4.486-10-10s4.486-10 10-10h100c5.523 0 10-4.477 10-10v-10h25.2c23.908 0 45.305 13.198 55.841 34.443 1.689 3.404 5.16 5.557 8.959 5.557h82v90c0 3.506.61 6.87 1.72 10h-63.72c-1.553 0-3.084.361-4.472 1.056l-11.163 5.581c-17.67 8.742-37.23 13.363-56.565 13.363h-13.898c-5.523 0-10 4.477-10 10s4.477 10 10 10h13.898c22.395 0 45.021-5.338 65.472-15.456l9.089-4.544h89.639c3.904 0 7.633-.758 11.057-2.121 3.471 12.731 15.128 22.121 28.943 22.121s25.473-9.39 28.943-22.121c3.425 1.363 7.153 2.121 11.057 2.121 13.815 0 25.473-9.39 28.943-22.121 3.425 1.363 7.153 2.121 11.057 2.121 16.542 0 30-13.458 30-30v-120c0-1.52-.349-2.954-.955-4.244-1.948-16.892-6.858-33.581-14.501-49.028l-4.544-9.088v-109.64c0-3.904-.758-7.633-2.121-11.057 12.732-3.47 22.121-15.127 22.121-28.943zm-372 222h-90c-3.506 0-6.87.61-10 1.72v-83.72c0-1.552-.361-3.083-1.056-4.472-2.273-5.806-18.944-30.319-18.944-67.728v-107.8c0-5.514 4.486-10 10-10s10 4.486 10 10v20c0 5.523 4.477 10 10 10s10-4.477 10-10v-40c0-5.514 4.486-10 10-10s10 4.486 10 10v40c0 5.523 4.477 10 10 10s10-4.477 10-10c0-9.1 0-44.228 0-60 0-5.514 4.486-10 10-10s10 4.486 10 10v60c0 5.523 4.477 10 10 10s10-4.477 10-10v-40c0-5.514 4.486-10 10-10s10 4.486 10 10v100c0 5.523 4.477 10 10 10h10v25.2c0 23.545-13.52 45.464-34.443 55.841-3.404 1.689-5.557 5.16-5.557 8.959zm45.2-20h-25.2v-56.064c24.826-14.754 40-41.313 40-70.736v-25.2h56.065c14.753 24.826 41.311 40 70.735 40h25.2v56.064c-24.826 14.754-40 41.312-40 70.736v25.2h-56.064c-14.754-24.825-41.312-40-70.736-40zm306.8 130c0 5.514-4.486 10-10 10s-10-4.486-10-10v-20c0-5.523-4.478-10-10-10s-10 4.477-10 10v40c0 5.514-4.486 10-10 10s-10-4.486-10-10v-40c0-5.523-4.478-10-10-10s-10 4.477-10 10v60c0 5.514-4.486 10-10 10s-10-4.486-10-10v-60c0-5.523-4.478-10-10-10s-10 4.477-10 10v40c0 5.514-4.486 10-10 10s-10-4.486-10-10v-100c0-5.523-4.478-10-10-10h-10v-25.2c0-23.908 13.198-45.305 34.443-55.841 3.404-1.688 5.557-5.159 5.557-8.959v-82h90c3.506 0 6.87-.61 10-1.72v83.72c0 1.552.361 3.083 1.056 4.472l5.581 11.163c8.742 17.67 13.363 37.23 13.363 56.565zm-10-322h-60c-5.522 0-10 4.477-10 10s4.478 10 10 10h40c5.514 0 10 4.486 10 10s-4.486 10-10 10h-100c-5.522 0-10 4.477-10 10v10h-25.2c-23.546 0-45.465-13.52-55.841-34.443-1.688-3.403-5.159-5.557-8.959-5.557h-82v-90c0-3.506-.61-6.87-1.72-10h83.72c1.553 0 3.084-.361 4.473-1.056 5.799-2.269 30.317-18.944 67.727-18.944h107.8c5.514 0 10 4.486 10 10s-4.486 10-10 10h-20c-5.522 0-10 4.477-10 10s4.478 10 10 10h40c5.514 0 10 4.486 10 10s-4.486 10-10 10h-40c-5.522 0-10 4.477-10 10s4.478 10 10 10h60c5.514 0 10 4.486 10 10s-4.486 10-10 10z"
                fill="#ffffff" />
            <circle cx="140" cy="499" r="10" fill="#ffffff" />
        </g>
        <g transform="matrix(0.1171875 0 0 0.1171875 249 44)" id="L1_7">
            <path
                d="M255.987,20c-5.522,0-10,4.477-10,10v59.493c0,5.523,4.478,10,10,10c5.522,0,10-4.477,10-10V30    C265.987,24.477,261.509,20,255.987,20z"
                fill="#ffffff" />
            <path
                d="M199.324,105.381l-23.926-23.905c-3.909-3.904-10.239-3.901-14.143,0.006c-3.903,3.907-3.9,10.238,0.006,14.142    l23.927,23.905c1.953,1.951,4.511,2.926,7.068,2.926c2.561,0,5.121-0.978,7.074-2.932    C203.233,115.616,203.23,109.285,199.324,105.381z"
                fill="#ffffff" />
            <path
                d="M350.738,81.5c-3.907-3.905-10.239-3.901-14.143,0.005l-25.437,25.457c-3.903,3.907-3.9,10.238,0.006,14.142    c1.953,1.952,4.512,2.927,7.069,2.927c2.561,0,5.121-0.978,7.074-2.932l25.437-25.457C354.647,91.735,354.644,85.404,350.738,81.5    z"
                fill="#ffffff" />
            <path
                d="M446.5,284h-8.07c6.586-8.585,10.513-19.312,10.513-30.943v-14.113C448.943,210.853,426.09,188,398,188    c-28.09,0-50.943,22.853-50.943,50.943v10.971l-75.231-75.232c-4.175-4.174-10.315-5.514-15.825-3.524    c-5.508-1.99-11.65-0.65-15.826,3.525l-75.23,75.231v-10.971C164.943,210.853,142.09,188,114,188    c-28.09,0-50.943,22.853-50.943,50.943v14.113c0,11.632,3.927,22.358,10.513,30.943H65.5C29.383,284,0,313.383,0,349.5V482    c0,5.523,4.478,10,10,10h42.25c1,0,1.964-0.151,2.875-0.424C56.036,491.849,57,492,58,492h112c5.522,0,10-4.477,10-10v-34    c0-5.523-4.478-10-10-10c-5.522,0-10,4.477-10,10v24H68V358.053c0-5.523-4.478-10-10-10s-10,4.477-10,10V472H20V349.5    c0-25.089,20.411-45.5,45.5-45.5H135c2.752,0,5.244-1.113,7.052-2.911c0.007-0.007,0.013-0.011,0.02-0.017l103.869-103.87    c-0.681,20.768-7.141,40.771-18.787,58.068l-65.448,97.198c-1.111,1.651-1.705,3.596-1.705,5.585V369c0,5.523,4.478,10,10,10    c5.522,0,10-4.477,10-10v-7.895l63.743-94.666c4.87-7.233,8.954-14.875,12.257-22.808c3.303,7.933,7.386,15.575,12.257,22.808    L332,361.105V482c0,5.523,4.478,10,10,10h112c1,0,1.964-0.151,2.875-0.424c0.911,0.273,1.875,0.424,2.875,0.424H502    c5.522,0,10-4.477,10-10V349.5C512,313.383,482.617,284,446.5,284z M144.943,253.056c0,17.063-13.88,30.944-30.943,30.944    s-30.943-13.881-30.943-30.943v-14.113C83.057,221.881,96.938,208,114,208s30.943,13.881,30.943,30.943V253.056z M367.057,238.943    C367.057,221.881,380.938,208,398,208s30.943,13.881,30.943,30.943v14.113c0,17.063-13.88,30.944-30.943,30.944    s-30.943-13.881-30.943-30.943V238.943z M492,472L492,472h-28v-74c0-5.523-4.478-10-10-10c-5.522,0-10,4.477-10,10v74h-92V358.053    c0-1.99-0.594-3.935-1.705-5.585l-65.448-97.197c-11.646-17.297-18.106-37.3-18.787-58.068l103.869,103.869    c0.132,0.132,0.256,0.243,0.376,0.342c1.773,1.603,4.117,2.588,6.695,2.588h69.5c25.089,0,45.5,20.411,45.5,45.5V472z"
                fill="#ffffff" />
            <path
                d="M461.069,350.98c-1.859-1.86-4.439-2.93-7.069-2.93s-5.21,1.07-7.07,2.93c-1.86,1.86-2.93,4.44-2.93,7.07    s1.069,5.21,2.93,7.07c1.86,1.86,4.44,2.93,7.07,2.93s5.21-1.07,7.069-2.93c1.86-1.86,2.931-4.44,2.931-7.07    S462.93,352.85,461.069,350.98z"
                fill="#ffffff" />
            <path
                d="M177.069,403.93C175.21,402.07,172.63,401,170,401s-5.21,1.07-7.07,2.93S160,408.37,160,411s1.069,5.21,2.93,7.07    c1.861,1.86,4.44,2.93,7.07,2.93s5.21-1.07,7.069-2.93c1.86-1.86,2.931-4.44,2.931-7.07S178.93,405.79,177.069,403.93z"
                fill="#ffffff" />
        </g>
        <g transform="matrix(0.07050670784441397 0.008460804972373585 -0.008460804972373585 0.07050670784441397 17.11624886475766 106.78431671890239)"
            id="L1_8">
            <path
                d="M53.333,224C23.936,224,0,247.936,0,277.333V448c0,29.397,23.936,53.333,53.333,53.333h64    c12.011,0,23.061-4.053,32-10.795V224H53.333z"
                fill="#ffffff" />
            <path
                d="M512,304c0-12.821-5.077-24.768-13.888-33.579c9.963-10.901,15.04-25.515,13.653-40.725    c-2.496-27.115-26.923-48.363-55.637-48.363H324.352c6.528-19.819,16.981-56.149,16.981-85.333c0-46.272-39.317-85.333-64-85.333    c-22.165,0-37.995,12.48-38.677,12.992c-2.517,2.027-3.989,5.099-3.989,8.341v72.341l-61.44,133.099l-2.56,1.301v228.651    C188.032,475.584,210.005,480,224,480h195.819c23.232,0,43.563-15.659,48.341-37.269c2.453-11.115,1.024-22.315-3.861-32.043    c15.765-7.936,26.368-24.171,26.368-42.688c0-7.552-1.728-14.784-5.013-21.333C501.419,338.731,512,322.496,512,304z"
                fill="#ffffff" />
        </g>
        <path
            d="M376,30c-27.783,0-53.255,8.804-75.707,26.168c-21.525,16.647-35.856,37.85-44.293,53.268    c-8.437-15.419-22.768-36.621-44.293-53.268C189.255,38.804,163.783,30,136,30C58.468,30,0,93.417,0,177.514    c0,90.854,72.943,153.015,183.369,247.118c18.752,15.981,40.007,34.095,62.099,53.414C248.38,480.596,252.12,482,256,482    s7.62-1.404,10.532-3.953c22.094-19.322,43.348-37.435,62.111-53.425C439.057,330.529,512,268.368,512,177.514    C512,93.417,453.532,30,376,30z"
            transform="matrix(0.07613804473054586 -0.023427091891239805 0.023427091891239805 0.07613804473054586 185.51132502482287 247.50599607313765)"
            id="L1_9" fill="#ffffff" />
        <g transform="matrix(0.07916869968175888 0 0 0.07916869968175888 232.73281288146973 -18.267187118530273)"
            id="L1_10">
            <path
                d="M117.333,10.667h-64C23.936,10.667,0,34.603,0,64v170.667C0,264.064,23.936,288,53.333,288h96V21.461    C140.395,14.72,129.344,10.667,117.333,10.667z"
                fill="#ffffff" />
            <path
                d="M512,208c0-18.496-10.581-34.731-26.347-42.667c3.285-6.549,5.013-13.803,5.013-21.333    c0-18.517-10.603-34.752-26.368-42.688c4.885-9.728,6.315-20.928,3.861-32.043C463.381,47.659,443.051,32,419.819,32H224    c-13.995,0-35.968,4.416-53.333,12.608v228.651l2.56,1.301l61.44,133.12V480c0,3.243,1.472,6.315,3.989,8.341    c0.683,0.512,16.512,12.992,38.677,12.992c24.683,0,64-39.061,64-85.333c0-29.184-10.453-65.515-16.981-85.333h131.776    c28.715,0,53.141-21.248,55.637-48.363c1.387-15.211-3.691-29.824-13.653-40.725C506.923,232.768,512,220.821,512,208z"
                fill="#ffffff" />
        </g>
        <g transform="matrix(0.1171875 0 0 0.1171875 32 177)" id="L1_11">
            <path
                d="m484.5.008h-31.814c-9.386 0-9.813 15 0 15h31.814c6.893 0 12.5 5.607 12.5 12.5v164.347c0 6.893-5.607 12.5-12.5 12.5h-22.759c-4.143 0-7.5 3.358-7.5 7.5v20.205l-25.508-25.508c-1.407-1.407-3.314-2.197-5.304-2.197h-145.981v-55.518c.013-15.305-12.598-27.723-27.896-27.5v-93.829c0-6.893 5.607-12.5 12.5-12.5h147.948c9.386 0 9.813-15 0-15h-147.948c-15.163 0-27.5 12.336-27.5 27.5v93.829h-207.052c-15.163 0-27.5 12.336-27.5 27.5v164.347c0 15.164 12.337 27.5 27.5 27.5h15.259v30.812c0 6.462 8.045 10.06 12.804 5.303l36.114-36.115h58.977v105.512c0 15.164 12.337 27.5 27.5 27.5h158.271l36.114 36.115c4.759 4.757 12.804 1.159 12.804-5.303v-30.812h15.259c15.163 0 27.5-12.336 27.5-27.5v-164.346c0-15.164-12.337-27.5-27.5-27.5h-123.154v-34.994h142.875l36.114 36.115c4.759 4.757 12.804 1.159 12.804-5.303v-30.812h15.259c15.163 0 27.5-12.336 27.5-27.5v-164.348c0-15.163-12.337-27.5-27.5-27.5zm-333.847 281.842v4.385c-5.139 2.723-9.367 4.665-11.938 5.788-4.907-2.142-15.849-7.275-27.835-15.231-7.817-5.194-16.471 7.07-8.295 12.497 17.49 11.61 32.771 17.607 33.413 17.857 1.811.68 3.623.68 5.435 0 .226-.088 3.738-1.463 9.22-4.103v22.642h-62.083c-1.989 0-3.896.79-5.304 2.197l-25.507 25.508v-20.205c0-4.142-3.357-7.5-7.5-7.5h-22.759c-6.893 0-12.5-5.607-12.5-12.5v-164.348c0-6.893 5.607-12.5 12.5-12.5h222.448c6.893 0 12.5 5.607 12.5 12.5v105.513h-50.32c9.617-13.823 14.484-28.46 14.485-43.68.002-27.944-22.428-50.68-50.002-50.682-14.822-.001-28.519 6.523-37.885 17.579-9.364-11.057-23.061-17.583-37.884-17.585-27.57-.002-50.006 22.731-50.008 50.674-.002 17.964 6.803 35.185 20.225 51.184 6.031 7.191 17.799-2.123 11.492-9.641-11.094-13.224-16.719-27.2-16.717-41.542.002-19.673 15.706-35.677 35.007-35.676 13.209.001 25.156 7.462 31.18 19.472 1.292 2.576 3.969 3.892 6.704 4.138 2.837 0 5.432-1.601 6.703-4.137 17.084-33.238 65.817-21.018 66.185 16.214-.002 15.135-6.251 29.816-18.578 43.681h-14.882c-15.163.001-27.5 12.337-27.5 27.501zm249.949-12.5c6.893 0 12.5 5.607 12.5 12.5v164.347c0 6.893-5.607 12.5-12.5 12.5h-22.759c-4.143 0-7.5 3.358-7.5 7.5v20.205l-25.508-25.508c-1.407-1.407-3.314-2.197-5.304-2.197h-161.378c-6.893 0-12.5-5.607-12.5-12.5v-164.347c0-6.893 5.607-12.5 12.5-12.5z"
                fill="#ffffff" />
            <path
                d="m374.793 33.714c-2.771 0-5.317 1.529-6.62 3.975l-19.644 36.891c-1.58 2.981-3.268 5.537-6.554 6.961-3.241-5.23-9.031-8.722-15.622-8.722h-12.618c-10.128 0-18.368 8.24-18.368 18.369v75.689c0 10.128 8.24 18.369 18.368 18.369h12.618c7.569 0 14.081-4.603 16.891-11.155 3.362 1.181 7.14 1.912 11.786 1.912h63.598c10.475 0 19.659-7.073 22.334-17.2l13.639-51.618c3.491-12.916-7.455-25.939-20.474-25.939h-29.002c-1.761 0-3.193-1.433-3.193-3.193v-17.2c0-14.964-12.175-27.139-27.139-27.139zm-45.071 133.163c0 1.857-1.511 3.369-3.368 3.369h-12.618c-1.857 0-3.368-1.511-3.368-3.369v-75.689c0-1.857 1.511-3.369 3.368-3.369h12.618c1.857 0 3.368 1.511 3.368 3.369zm75.403-70.631h29.002c3.801 0 6.699 3.546 5.929 7.268l-13.596 51.458c-.938 3.551-4.159 6.031-7.832 6.031h-63.598c-4.033 0-6.711-.729-10.309-2.643v-61.884c7.587-2.189 13.943-7.646 17.198-15.127l16.993-31.914c4.671 1.691 8.019 6.171 8.019 11.419v17.2c.001 10.03 8.162 18.192 18.194 18.192z"
                fill="#ffffff" />
            <path
                d="m224.709 392.679c14.659 0 26.585-11.926 26.585-26.585-1.46-35.27-51.716-35.258-53.171 0 0 14.659 11.927 26.585 26.586 26.585zm0-38.171c6.388 0 11.585 5.197 11.585 11.585-.637 15.37-22.537 15.365-23.171 0 0-6.387 5.197-11.585 11.586-11.585z"
                fill="#ffffff" />
            <path
                d="m289.377 392.679c14.659 0 26.586-11.926 26.586-26.585-1.461-35.269-51.716-35.259-53.171 0 0 14.659 11.926 26.585 26.585 26.585zm0-38.171c6.389 0 11.586 5.197 11.586 11.585-.636 15.369-22.537 15.366-23.171 0 0-6.387 5.197-11.585 11.585-11.585z"
                fill="#ffffff" />
            <path
                d="m354.046 392.679c14.659 0 26.585-11.926 26.585-26.585-1.46-35.27-51.716-35.258-53.171 0 0 14.659 11.927 26.585 26.586 26.585zm0-38.171c6.388 0 11.585 5.197 11.585 11.585-.637 15.37-22.537 15.365-23.171 0 0-6.387 5.197-11.585 11.586-11.585z"
                fill="#ffffff" />
        </g>
        <g transform="matrix(0.06794416904449463 0 0 0.06794416904449463 328.51958361389393 211.81109678012922)"
            id="L1_12">
            <path
                d="m496.842 41.953-33.526-21.004c-7.313-4.583-15.978-6.043-24.391-4.107-8.413 1.934-15.568 7.029-20.148 14.348l-94.354 150.771h-288.976c-19.546 0-35.447 15.919-35.447 35.487v192.759c0 19.567 15.901 35.486 35.447 35.486h45.087l7.029 41.94c.574 3.429 2.889 6.313 6.112 7.617 1.21.489 2.482.729 3.749.729 2.105 0 4.193-.665 5.94-1.955l65.475-48.333 36.917-.012c5.523-.002 9.999-4.48 9.997-10.003-.002-5.522-4.479-9.997-10-9.997h-.003l-40.207.013c-2.137.001-4.217.686-5.936 1.955l-55.013 40.61-5.735-34.219c-.808-4.817-4.978-8.347-9.862-8.347h-53.55c-8.518 0-15.447-6.947-15.447-15.486v-192.757c0-8.54 6.93-15.487 15.447-15.487h276.461l-25.918 41.422h-211.799c-5.522 0-10 4.477-10 10s4.478 10 10 10h199.284l-21.434 34.255c-1.047 1.676-1.573 3.624-1.514 5.6l.078 2.571h-176.414c-5.522 0-10 4.478-10 10s4.478 10 10 10h177.019l1.294 42.826h-178.313c-5.522 0-10 4.478-10 10s4.478 10 10 10h188.619.039c.074 0 .148-.001.222-.003.007 0 .015-.001.022-.001 1.425-.04 2.776-.378 3.992-.954l68.869-30.93c1.802-.809 3.324-2.134 4.374-3.807l81.672-130.526v187.793c0 8.539-6.93 15.486-15.446 15.486l-110.387-.013c-.001 0 0 0-.001 0-5.521 0-9.999 4.477-10 9.999s4.476 10 9.999 10.001l110.388.013c19.546 0 35.447-15.919 35.447-35.486v-192.759c0-6.657-1.807-13.022-5.254-18.601l70.332-112.379c9.443-15.093 4.852-35.062-10.236-44.515zm-111.313 80.055 18.734 11.737-101.262 161.745-.571-2.483c-.595-2.585-2.191-4.827-4.439-6.234-2.247-1.406-4.96-1.862-7.548-1.271l-8.426 1.938zm-85.761 229.066-28.322-17.743-.688-22.78 14.421-3.316 3.751 16.313c.595 2.585 2.191 4.827 4.439 6.234 2.248 1.408 4.962 1.865 7.548 1.271l16.298-3.748 3.321 14.442zm20.149-44.913 101.295-161.798 18.702 11.716-103.511 165.427-1.939-8.43c-.594-2.585-2.19-4.827-4.439-6.234-2.248-1.408-4.965-1.865-7.548-1.27zm130.605-167.037-54.385-34.072 13.555-21.665 54.384 34.071zm39.601-63.266-15.412 24.631-54.385-34.071 15.404-24.619c1.745-2.787 4.471-4.729 7.676-5.466 3.202-.735 6.504-.182 9.292 1.565l33.525 21.004c5.749 3.601 7.498 11.207 3.9 16.956z"
                fill="#ffffff" />
            <path
                d="m251.14 445.678c-4.174 0-8.006-2.7-9.404-6.631-1.377-3.871-.212-8.329 2.936-10.991 3.284-2.776 8.092-3.121 11.745-.864 3.503 2.165 5.343 6.404 4.534 10.445-.925 4.617-5.103 8.041-9.811 8.041z"
                fill="#ffffff" />
        </g>
    </defs>
    <g fi:class="KUsePattern">
        <pattern id="pattern_L1_0" width="350" height="350" patternUnits="userSpaceOnUse">
            <use xlink:href="#L1_0" x="-350" y="-350" />
            <use xlink:href="#L1_0" x="0" y="-350" />
            <use xlink:href="#L1_0" x="350" y="-350" />
            <use xlink:href="#L1_0" x="-350" y="0" />
            <use xlink:href="#L1_0" x="0" y="0" />
            <use xlink:href="#L1_0" x="350" y="0" />
            <use xlink:href="#L1_0" x="-350" y="350" />
            <use xlink:href="#L1_0" x="0" y="350" />
            <use xlink:href="#L1_0" x="350" y="350" />
        </pattern>
        <rect x="0" y="0" width="100%" height="100%" fill="url(#pattern_L1_0)" />
    </g>
    <g fi:class="KUsePattern">
        <pattern id="pattern_L1_1" width="350" height="350" patternUnits="userSpaceOnUse">
            <use xlink:href="#L1_1" x="-350" y="-350" />
            <use xlink:href="#L1_1" x="0" y="-350" />
            <use xlink:href="#L1_1" x="350" y="-350" />
            <use xlink:href="#L1_1" x="-350" y="0" />
            <use xlink:href="#L1_1" x="0" y="0" />
            <use xlink:href="#L1_1" x="350" y="0" />
            <use xlink:href="#L1_1" x="-350" y="350" />
            <use xlink:href="#L1_1" x="0" y="350" />
            <use xlink:href="#L1_1" x="350" y="350" />
        </pattern>
        <rect x="0" y="0" width="100%" height="100%" fill="url(#pattern_L1_1)" />
    </g>
    <g fi:class="KUsePattern">
        <pattern id="pattern_L1_2" width="350" height="350" patternUnits="userSpaceOnUse">
            <use xlink:href="#L1_2" x="-350" y="-350" />
            <use xlink:href="#L1_2" x="0" y="-350" />
            <use xlink:href="#L1_2" x="350" y="-350" />
            <use xlink:href="#L1_2" x="-350" y="0" />
            <use xlink:href="#L1_2" x="0" y="0" />
            <use xlink:href="#L1_2" x="350" y="0" />
            <use xlink:href="#L1_2" x="-350" y="350" />
            <use xlink:href="#L1_2" x="0" y="350" />
            <use xlink:href="#L1_2" x="350" y="350" />
        </pattern>
        <rect x="0" y="0" width="100%" height="100%" fill="url(#pattern_L1_2)" />
    </g>
    <g fi:class="KUsePattern">
        <pattern id="pattern_L1_3" width="350" height="350" patternUnits="userSpaceOnUse">
            <use xlink:href="#L1_3" x="-350" y="-350" />
            <use xlink:href="#L1_3" x="0" y="-350" />
            <use xlink:href="#L1_3" x="350" y="-350" />
            <use xlink:href="#L1_3" x="-350" y="0" />
            <use xlink:href="#L1_3" x="0" y="0" />
            <use xlink:href="#L1_3" x="350" y="0" />
            <use xlink:href="#L1_3" x="-350" y="350" />
            <use xlink:href="#L1_3" x="0" y="350" />
            <use xlink:href="#L1_3" x="350" y="350" />
        </pattern>
        <rect x="0" y="0" width="100%" height="100%" fill="url(#pattern_L1_3)" />
    </g>
    <g fi:class="KUsePattern">
        <pattern id="pattern_L1_4" width="350" height="350" patternUnits="userSpaceOnUse">
            <use xlink:href="#L1_4" x="-350" y="-350" />
            <use xlink:href="#L1_4" x="0" y="-350" />
            <use xlink:href="#L1_4" x="350" y="-350" />
            <use xlink:href="#L1_4" x="-350" y="0" />
            <use xlink:href="#L1_4" x="0" y="0" />
            <use xlink:href="#L1_4" x="350" y="0" />
            <use xlink:href="#L1_4" x="-350" y="350" />
            <use xlink:href="#L1_4" x="0" y="350" />
            <use xlink:href="#L1_4" x="350" y="350" />
        </pattern>
        <rect x="0" y="0" width="100%" height="100%" fill="url(#pattern_L1_4)" />
    </g>
    <g fi:class="KUsePattern">
        <pattern id="pattern_L1_5" width="350" height="350" patternUnits="userSpaceOnUse">
            <use xlink:href="#L1_5" x="-350" y="-350" />
            <use xlink:href="#L1_5" x="0" y="-350" />
            <use xlink:href="#L1_5" x="350" y="-350" />
            <use xlink:href="#L1_5" x="-350" y="0" />
            <use xlink:href="#L1_5" x="0" y="0" />
            <use xlink:href="#L1_5" x="350" y="0" />
            <use xlink:href="#L1_5" x="-350" y="350" />
            <use xlink:href="#L1_5" x="0" y="350" />
            <use xlink:href="#L1_5" x="350" y="350" />
        </pattern>
        <rect x="0" y="0" width="100%" height="100%" fill="url(#pattern_L1_5)" />
    </g>
    <g fi:class="KUsePattern">
        <pattern id="pattern_L1_6" width="350" height="350" patternUnits="userSpaceOnUse">
            <use xlink:href="#L1_6" x="-350" y="-350" />
            <use xlink:href="#L1_6" x="0" y="-350" />
            <use xlink:href="#L1_6" x="350" y="-350" />
            <use xlink:href="#L1_6" x="-350" y="0" />
            <use xlink:href="#L1_6" x="0" y="0" />
            <use xlink:href="#L1_6" x="350" y="0" />
            <use xlink:href="#L1_6" x="-350" y="350" />
            <use xlink:href="#L1_6" x="0" y="350" />
            <use xlink:href="#L1_6" x="350" y="350" />
        </pattern>
        <rect x="0" y="0" width="100%" height="100%" fill="url(#pattern_L1_6)" />
    </g>
    <g fi:class="KUsePattern">
        <pattern id="pattern_L1_7" width="350" height="350" patternUnits="userSpaceOnUse">
            <use xlink:href="#L1_7" x="-350" y="-350" />
            <use xlink:href="#L1_7" x="0" y="-350" />
            <use xlink:href="#L1_7" x="350" y="-350" />
            <use xlink:href="#L1_7" x="-350" y="0" />
            <use xlink:href="#L1_7" x="0" y="0" />
            <use xlink:href="#L1_7" x="350" y="0" />
            <use xlink:href="#L1_7" x="-350" y="350" />
            <use xlink:href="#L1_7" x="0" y="350" />
            <use xlink:href="#L1_7" x="350" y="350" />
        </pattern>
        <rect x="0" y="0" width="100%" height="100%" fill="url(#pattern_L1_7)" />
    </g>
    <g fi:class="KUsePattern">
        <pattern id="pattern_L1_8" width="350" height="350" patternUnits="userSpaceOnUse">
            <use xlink:href="#L1_8" x="-350" y="-350" />
            <use xlink:href="#L1_8" x="0" y="-350" />
            <use xlink:href="#L1_8" x="350" y="-350" />
            <use xlink:href="#L1_8" x="-350" y="0" />
            <use xlink:href="#L1_8" x="0" y="0" />
            <use xlink:href="#L1_8" x="350" y="0" />
            <use xlink:href="#L1_8" x="-350" y="350" />
            <use xlink:href="#L1_8" x="0" y="350" />
            <use xlink:href="#L1_8" x="350" y="350" />
        </pattern>
        <rect x="0" y="0" width="100%" height="100%" fill="url(#pattern_L1_8)" />
    </g>
    <g fi:class="KUsePattern">
        <pattern id="pattern_L1_9" width="350" height="350" patternUnits="userSpaceOnUse">
            <use xlink:href="#L1_9" x="-350" y="-350" />
            <use xlink:href="#L1_9" x="0" y="-350" />
            <use xlink:href="#L1_9" x="350" y="-350" />
            <use xlink:href="#L1_9" x="-350" y="0" />
            <use xlink:href="#L1_9" x="0" y="0" />
            <use xlink:href="#L1_9" x="350" y="0" />
            <use xlink:href="#L1_9" x="-350" y="350" />
            <use xlink:href="#L1_9" x="0" y="350" />
            <use xlink:href="#L1_9" x="350" y="350" />
        </pattern>
        <rect x="0" y="0" width="100%" height="100%" fill="url(#pattern_L1_9)" />
    </g>
    <g fi:class="KUsePattern">
        <pattern id="pattern_L1_10" width="350" height="350" patternUnits="userSpaceOnUse">
            <use xlink:href="#L1_10" x="-350" y="-350" />
            <use xlink:href="#L1_10" x="0" y="-350" />
            <use xlink:href="#L1_10" x="350" y="-350" />
            <use xlink:href="#L1_10" x="-350" y="0" />
            <use xlink:href="#L1_10" x="0" y="0" />
            <use xlink:href="#L1_10" x="350" y="0" />
            <use xlink:href="#L1_10" x="-350" y="350" />
            <use xlink:href="#L1_10" x="0" y="350" />
            <use xlink:href="#L1_10" x="350" y="350" />
        </pattern>
        <rect x="0" y="0" width="100%" height="100%" fill="url(#pattern_L1_10)" />
    </g>
    <g fi:class="KUsePattern">
        <pattern id="pattern_L1_11" width="350" height="350" patternUnits="userSpaceOnUse">
            <use xlink:href="#L1_11" x="-350" y="-350" />
            <use xlink:href="#L1_11" x="0" y="-350" />
            <use xlink:href="#L1_11" x="350" y="-350" />
            <use xlink:href="#L1_11" x="-350" y="0" />
            <use xlink:href="#L1_11" x="0" y="0" />
            <use xlink:href="#L1_11" x="350" y="0" />
            <use xlink:href="#L1_11" x="-350" y="350" />
            <use xlink:href="#L1_11" x="0" y="350" />
            <use xlink:href="#L1_11" x="350" y="350" />
        </pattern>
        <rect x="0" y="0" width="100%" height="100%" fill="url(#pattern_L1_11)" />
    </g>
    <g fi:class="KUsePattern">
        <pattern id="pattern_L1_12" width="350" height="350" patternUnits="userSpaceOnUse">
            <use xlink:href="#L1_12" x="-350" y="-350" />
            <use xlink:href="#L1_12" x="0" y="-350" />
            <use xlink:href="#L1_12" x="350" y="-350" />
            <use xlink:href="#L1_12" x="-350" y="0" />
            <use xlink:href="#L1_12" x="0" y="0" />
            <use xlink:href="#L1_12" x="350" y="0" />
            <use xlink:href="#L1_12" x="-350" y="350" />
            <use xlink:href="#L1_12" x="0" y="350" />
            <use xlink:href="#L1_12" x="350" y="350" />
        </pattern>
        <rect x="0" y="0" width="100%" height="100%" fill="url(#pattern_L1_12)" />
    </g>
</svg>